<?xml version="1.0" encoding="UTF-8"?>
<svg id="a" xmlns="http://www.w3.org/2000/svg" version="1.1" viewBox="0 0 245.8 249.6">
  <defs>
    <style>
      .cls-1 {
        fill: #db1c97;
      }

      .cls-1, .cls-2 {
        stroke-width: 0px;
      }

      .cls-2 {
        fill: #fff;
      }
    </style>
  </defs>
  <rect class="cls-1" x="6.4" y="8.3" width="233" height="233" rx="36" ry="36"/>
  <g>
    <path class="cls-2" d="M64.6,89.1v75.2h-24.7v-75.2h24.7ZM63.6,68.7c0,6.5-4.7,11.3-11.3,11.3s-11.3-4.7-11.3-11.3,4.7-11.4,11.3-11.4,11.3,4.7,11.3,11.4Z"/>
    <path class="cls-2" d="M210.2,89.9v60.9c0,28.2-14.8,41.5-40.6,41.5s-25.9-3.3-34.3-9.8l8.8-18.3c5.7,4.9,15.2,8,23.3,8,13,0,18.5-6.3,18.5-18v-2.5c-4.7,5.9-11.7,8.8-20.5,8.8-18.4,0-33.9-14-33.9-36s15.6-35.9,33.9-35.9,17,3.3,21.7,10.3v-9.1h23.1ZM186.2,124.5c0-9.1-6.4-15.1-15.1-15.1s-15.2,6-15.2,15.1,6.5,15.3,15.2,15.3,15.1-6.2,15.1-15.3Z"/>
    <path class="cls-2" d="M132.1,160.9c-4.6,2.9-11.4,4.3-18.3,4.3-19.2,0-30.5-9.4-30.5-28.7v-25.2h-10.9v-19.7h10.9v-19.5h26.3v19.5h17.2v19.7h-17.2v24.9c0,5.5,3.2,8.6,7.9,8.6s5.8-.8,8-2.4l6.5,18.4Z"/>
  </g>
</svg>